<?xml version="1.0" encoding="UTF-8" standalone="no"?>
<svg xmlns="http://www.w3.org/2000/svg" xmlns:inkscape="http://www.inkscape.org/namespaces/inkscape" xmlns:sodipodi="http://sodipodi.sourceforge.net/DTD/sodipodi-0.0.dtd"
  width="2000" height="2000" viewBox="0 0 2000 2000" version="1.1">
  <sodipodi:namedview id="nv1" pagecolor="#ffffff" inkscape:document-units="px"
    inkscape:zoom="1" inkscape:cx="1000" inkscape:cy="1000"/>
  <defs id="defs1"/>
  <g inkscape:groupmode="layer" id="layer1" inkscape:label="golf_course" style="display:inline">
  </g>
  <g inkscape:groupmode="layer" id="layer2" inkscape:label="Rough" style="display:inline">
    <path id="osm_golf_course_1027260900" inkscape:label="golf_course"
      style="fill:#8BC34A;fill-opacity:0.35;stroke:#558B2F;stroke-width:0.5;stroke-opacity:1"
      d="M 841.3,1027.3 L 1860.5,1857.2 L 1867.1,1792.3 L 1851.0,1743.9 L 1819.0,1686.3 L 1783.4,1642.7 L 1735.4,1594.5 L 1571.1,1449.0 L 1560.8,1433.8 L 1551.5,1394.2 L 1541.2,924.6 L 1596.7,801.1 L 1637.2,790.1 L 1674.7,790.5 L 1803.2,721.6 L 1904.1,659.9 L 2290.5,592.8 L 2334.9,601.3 L 2329.3,526.6 L 2267.8,487.8 L 2324.9,489.3 L 2340.8,474.2 L 2305.0,424.8 L 2229.9,370.2 L 2170.8,303.6 L 2127.5,223.6 L 2093.7,130.3 L 2073.6,59.3 L 1912.5,-31.8 L 1810.5,-111.7 L 1731.4,-192.2 L 1673.8,-258.8 L 1634.9,-306.4 L 1509.8,-286.4 L 1526.9,544.5 L 1118.6,535.7 L 1123.2,977.8 L 900.0,970.2 L 856.2,979.7 L 841.3,1027.3"/>
  </g>
  <g inkscape:groupmode="layer" id="layer3" inkscape:label="Fairway" style="display:inline">
    <path id="osm_fairway_1387385174" inkscape:label="fairway"
      style="fill:#4CAF50;fill-opacity:0.35;stroke:#2E7D32;stroke-width:1.0;stroke-opacity:1"
      d="M 1078.2,1108.1 L 1070.2,1113.9 L 1063.9,1125.4 L 1066.4,1144.8 L 1075.3,1165.6 L 1087.5,1183.9 L 1396.5,1469.3 L 1397.3,1467.9 L 1397.4,1464.7 L 1400.1,1459.9 L 1402.6,1457.9 L 1406.6,1455.0 L 1408.7,1454.5 L 1409.6,1453.5 L 1409.1,1452.2 L 1395.1,1441.7 L 1387.5,1423.7 L 1373.6,1409.9 L 1280.1,1320.1 L 1224.4,1253.2 L 1164.8,1191.3 L 1099.9,1109.7 L 1089.8,1106.0 L 1078.2,1108.1"/>
    <path id="osm_fairway_1387385177" inkscape:label="fairway"
      style="fill:#4CAF50;fill-opacity:0.35;stroke:#2E7D32;stroke-width:1.0;stroke-opacity:1"
      d="M 1446.7,1303.6 L 1457.8,1320.3 L 1475.2,1334.0 L 1503.6,1333.7 L 1506.6,1319.3 L 1506.3,1306.7 L 1509.4,1101.6 L 1496.8,998.8 L 1494.3,921.5 L 1500.8,906.5 L 1503.7,890.9 L 1505.9,868.1 L 1506.7,845.7 L 1494.9,810.3 L 1468.2,820.9 L 1459.7,838.4 L 1451.1,852.1 L 1446.7,1303.6"/>
    <path id="osm_fairway_1387385180" inkscape:label="fairway"
      style="fill:#4CAF50;fill-opacity:0.35;stroke:#2E7D32;stroke-width:1.0;stroke-opacity:1"
      d="M 1721.6,620.1 L 1714.0,677.3 L 1727.2,725.4 L 1758.0,731.0 L 1778.5,729.9 L 1786.6,720.0 L 1789.3,701.6 L 1803.7,690.1 L 1820.6,672.0 L 1845.1,657.8 L 1893.5,642.2 L 1977.6,622.4 L 1990.9,609.4 L 2000.8,605.9 L 2022.9,607.6 L 2044.1,607.5 L 2093.6,602.7 L 2145.0,594.1 L 2171.4,590.8 L 2195.8,584.7 L 2228.4,561.7 L 2226.2,536.6 L 2163.9,534.3 L 2114.8,535.3 L 1990.8,555.9 L 1896.0,578.7 L 1828.2,597.0 L 1766.8,607.1 L 1721.6,620.1"/>
    <path id="osm_fairway_1387385183" inkscape:label="fairway"
      style="fill:#4CAF50;fill-opacity:0.35;stroke:#2E7D32;stroke-width:1.0;stroke-opacity:1"
      d="M 1931.9,44.4 L 1998.8,182.2 L 2006.1,212.6 L 2015.1,241.1 L 2024.8,268.7 L 2046.0,297.9 L 2074.7,323.7 L 2142.2,372.9 L 2156.2,381.2 L 2166.8,383.8 L 2185.5,362.1 L 2183.9,354.1 L 2179.2,346.9 L 1995.5,50.8 L 1974.6,45.2 L 1954.9,35.2 L 1931.9,44.4"/>
    <path id="osm_fairway_1387385186" inkscape:label="fairway"
      style="fill:#4CAF50;fill-opacity:0.35;stroke:#2E7D32;stroke-width:1.0;stroke-opacity:1"
      d="M 1642.8,-191.3 L 1655.7,-163.3 L 1671.0,-134.8 L 1679.7,-120.9 L 1689.4,-108.8 L 1700.7,-95.5 L 1713.3,-85.8 L 1723.7,-86.8 L 1731.9,-90.6 L 1738.0,-98.6 L 1740.8,-109.3 L 1741.6,-120.4 L 1737.0,-130.0 L 1729.1,-140.2 L 1718.7,-148.8 L 1668.2,-201.1 L 1642.8,-191.3"/>
    <path id="osm_fairway_1387385189" inkscape:label="fairway"
      style="fill:#4CAF50;fill-opacity:0.35;stroke:#2E7D32;stroke-width:1.0;stroke-opacity:1"
      d="M 1547.0,-46.1 L 1556.4,-57.9 L 1570.5,-66.6 L 1587.1,-68.3 L 1602.3,-65.0 L 1617.0,-47.2 L 1641.8,4.1 L 1697.1,98.9 L 1746.1,177.6 L 1789.1,259.8 L 1936.1,431.8 L 1908.2,447.8 L 1862.5,435.1 L 1777.9,359.7 L 1754.3,325.2 L 1737.9,289.0 L 1706.3,252.2 L 1686.5,214.2 L 1657.9,156.3 L 1652.7,138.9 L 1651.2,121.4 L 1617.1,86.2 L 1598.4,59.9 L 1571.6,4.1 L 1547.0,-46.1"/>
    <path id="osm_fairway_1387385192" inkscape:label="fairway"
      style="fill:#4CAF50;fill-opacity:0.35;stroke:#2E7D32;stroke-width:1.0;stroke-opacity:1"
      d="M 1315.3,599.3 L 1360.8,588.9 L 1641.8,548.4 L 1937.6,505.5 L 1949.1,508.0 L 1955.0,513.9 L 1956.1,521.9 L 1955.1,529.9 L 1859.9,549.4 L 1749.3,570.7 L 1715.2,584.7 L 1681.6,598.2 L 1605.7,608.0 L 1390.9,636.5 L 1338.5,639.6 L 1303.5,632.9 L 1306.6,616.6 L 1315.3,599.3"/>
    <path id="osm_fairway_1387385195" inkscape:label="fairway"
      style="fill:#4CAF50;fill-opacity:0.35;stroke:#2E7D32;stroke-width:1.0;stroke-opacity:1"
      d="M 1174.1,704.7 L 1175.4,681.9 L 1180.1,676.1 L 1186.2,671.8 L 1193.3,673.5 L 1198.8,676.9 L 1211.4,689.5 L 1221.5,707.1 L 1315.9,972.4 L 1337.8,1042.5 L 1341.9,1059.1 L 1354.4,1106.0 L 1367.7,1139.1 L 1365.1,1146.6 L 1361.7,1158.5 L 1360.5,1164.8 L 1352.7,1167.8 L 1340.9,1169.7 L 1322.7,1163.1 L 1316.4,1149.6 L 1312.0,1134.5 L 1305.5,1101.4 L 1301.6,1064.9 L 1299.2,1060.0 L 1295.0,1055.8 L 1290.8,1052.1 L 1287.2,1046.0 L 1284.4,1035.6 L 1282.7,1020.0 L 1280.2,1014.2 L 1273.7,1009.8 L 1262.9,1003.3 L 1187.4,784.0 L 1174.1,704.7"/>
    <path id="osm_fairway_1387385198" inkscape:label="fairway"
      style="fill:#4CAF50;fill-opacity:0.35;stroke:#2E7D32;stroke-width:1.0;stroke-opacity:1"
      d="M 1268.6,1134.2 L 1204.7,1080.9 L 1185.7,1055.6 L 1185.2,1001.9 L 1187.5,985.1 L 1192.5,973.6 L 1192.4,966.3 L 1202.2,960.1 L 1208.7,970.4 L 1229.1,994.2 L 1238.6,1020.2 L 1241.0,1038.0 L 1261.8,1069.0 L 1287.5,1123.6 L 1268.6,1134.2"/>
  </g>
  <g inkscape:groupmode="layer" id="layer4" inkscape:label="Green" style="display:inline">
    <path id="osm_green_1387385175" inkscape:label="green"
      style="fill:#1B5E20;fill-opacity:0.35;stroke:#1B5E20;stroke-width:1.0;stroke-opacity:1"
      d="M 1406.9,1456.7 L 1402.1,1459.8 L 1399.9,1463.8 L 1400.7,1469.0 L 1402.1,1474.1 L 1412.0,1484.2 L 1420.4,1488.2 L 1424.7,1488.8 L 1429.4,1488.1 L 1431.7,1485.9 L 1433.1,1482.7 L 1434.9,1475.9 L 1431.9,1469.6 L 1427.9,1464.3 L 1422.3,1460.1 L 1416.6,1456.7 L 1411.2,1455.6 L 1406.9,1456.7"/>
    <path id="osm_green_1387385178" inkscape:label="green"
      style="fill:#1B5E20;fill-opacity:0.35;stroke:#1B5E20;stroke-width:1.0;stroke-opacity:1"
      d="M 1472.6,771.1 L 1464.6,774.2 L 1458.5,780.2 L 1456.8,787.8 L 1456.7,794.9 L 1461.8,805.5 L 1468.1,809.5 L 1476.2,811.4 L 1483.4,808.6 L 1488.3,803.6 L 1491.1,796.2 L 1492.6,787.5 L 1489.7,781.5 L 1485.9,776.5 L 1479.7,773.1 L 1472.6,771.1"/>
    <path id="osm_green_1387385181" inkscape:label="green"
      style="fill:#1B5E20;fill-opacity:0.35;stroke:#1B5E20;stroke-width:1.0;stroke-opacity:1"
      d="M 2231.3,548.7 L 2233.5,543.4 L 2236.8,538.6 L 2246.4,535.0 L 2254.8,534.6 L 2264.1,536.2 L 2271.9,539.9 L 2276.2,544.1 L 2277.9,550.5 L 2277.0,557.9 L 2270.6,563.3 L 2262.3,565.6 L 2255.0,566.2 L 2244.9,563.4 L 2237.5,560.0 L 2233.3,554.1 L 2231.3,548.7"/>
    <path id="osm_green_1387385184" inkscape:label="green"
      style="fill:#1B5E20;fill-opacity:0.35;stroke:#1B5E20;stroke-width:1.0;stroke-opacity:1"
      d="M 1931.0,0.5 L 1924.7,3.4 L 1919.4,8.2 L 1916.2,13.2 L 1915.1,19.0 L 1916.8,25.8 L 1920.5,32.1 L 1927.6,37.8 L 1934.4,39.0 L 1940.1,37.4 L 1944.5,34.6 L 1947.5,26.5 L 1948.9,17.2 L 1947.7,10.1 L 1944.3,4.0 L 1938.2,1.7 L 1931.0,0.5"/>
    <path id="osm_green_1387385187" inkscape:label="green"
      style="fill:#1B5E20;fill-opacity:0.35;stroke:#1B5E20;stroke-width:1.0;stroke-opacity:1"
      d="M 1633.4,-231.9 L 1628.0,-228.5 L 1624.1,-224.1 L 1623.5,-218.2 L 1624.6,-212.7 L 1629.1,-205.3 L 1636.8,-198.9 L 1644.2,-196.8 L 1651.8,-197.2 L 1656.2,-201.0 L 1659.9,-207.0 L 1659.7,-214.4 L 1657.5,-221.1 L 1653.2,-225.8 L 1647.8,-229.8 L 1641.1,-231.7 L 1633.4,-231.9"/>
    <path id="osm_green_1387385190" inkscape:label="green"
      style="fill:#1B5E20;fill-opacity:0.35;stroke:#1B5E20;stroke-width:1.0;stroke-opacity:1"
      d="M 1939.6,442.3 L 1931.3,444.3 L 1925.0,448.0 L 1923.0,454.9 L 1923.0,463.5 L 1925.7,470.3 L 1931.1,477.6 L 1938.3,481.3 L 1945.9,483.4 L 1952.8,481.4 L 1958.3,479.2 L 1962.3,471.7 L 1963.8,463.2 L 1961.7,455.9 L 1957.8,448.9 L 1950.0,443.9 L 1939.6,442.3"/>
    <path id="osm_green_1387385193" inkscape:label="green"
      style="fill:#1B5E20;fill-opacity:0.35;stroke:#1B5E20;stroke-width:1.0;stroke-opacity:1"
      d="M 1278.6,597.4 L 1270.9,598.4 L 1264.1,601.5 L 1261.1,605.9 L 1260.0,610.9 L 1263.8,617.8 L 1269.7,623.9 L 1279.2,626.7 L 1288.8,628.4 L 1295.5,626.7 L 1300.7,622.9 L 1301.9,616.4 L 1300.2,608.6 L 1292.0,601.3 L 1285.8,598.5 L 1278.6,597.4"/>
    <path id="osm_green_1387385196" inkscape:label="green"
      style="fill:#1B5E20;fill-opacity:0.35;stroke:#1B5E20;stroke-width:1.0;stroke-opacity:1"
      d="M 1361.8,1173.6 L 1354.5,1175.5 L 1349.8,1180.9 L 1348.1,1186.0 L 1347.8,1192.1 L 1350.7,1197.7 L 1355.3,1203.3 L 1362.7,1207.9 L 1371.8,1210.8 L 1377.3,1210.3 L 1382.7,1206.7 L 1385.4,1199.1 L 1385.7,1190.2 L 1382.1,1183.6 L 1377.0,1177.8 L 1370.4,1174.4 L 1361.8,1173.6"/>
    <path id="osm_green_1387385199" inkscape:label="green"
      style="fill:#1B5E20;fill-opacity:0.35;stroke:#1B5E20;stroke-width:1.0;stroke-opacity:1"
      d="M 1181.1,920.9 L 1174.5,924.6 L 1171.5,930.0 L 1170.1,936.1 L 1170.6,942.5 L 1173.0,948.3 L 1176.7,954.1 L 1182.4,957.4 L 1188.1,958.2 L 1193.2,956.3 L 1197.6,951.3 L 1199.5,945.1 L 1199.9,938.6 L 1198.1,932.8 L 1193.8,927.8 L 1188.2,923.1 L 1181.1,920.9"/>
  </g>
  <g inkscape:groupmode="layer" id="layer5" inkscape:label="Bunker" style="display:inline">
  </g>
  <g inkscape:groupmode="layer" id="layer6" inkscape:label="Tee" style="display:inline">
  </g>
  <g inkscape:groupmode="layer" id="layer7" inkscape:label="CartPath" style="display:inline">
  </g>
  <g inkscape:groupmode="layer" id="layer8" inkscape:label="Water" style="display:inline">
  </g>
  <g inkscape:groupmode="layer" id="layer9" inkscape:label="OB" style="display:inline">
    <path id="osm_hole_1387385173" inkscape:label="hole 1"
      style="fill:none;fill-opacity:0.35;stroke:#F44336;stroke-width:2.0;stroke-opacity:1"
      d="M 999.9,999.9 L 1106.4,1163.4 L 1172.2,1246.8 L 1282.0,1355.9 L 1417.9,1472.9"/>
    <path id="osm_hole_1387385176" inkscape:label="hole 2"
      style="fill:none;fill-opacity:0.35;stroke:#F44336;stroke-width:2.0;stroke-opacity:1"
      d="M 1513.4,1396.0 L 1487.6,1321.9 L 1476.8,1253.9 L 1474.3,1104.3 L 1473.7,790.3"/>
    <path id="osm_hole_1387385179" inkscape:label="hole 3"
      style="fill:none;fill-opacity:0.35;stroke:#F44336;stroke-width:2.0;stroke-opacity:1"
      d="M 1551.5,866.0 L 1621.2,767.1 L 1685.3,698.6 L 1760.8,652.2 L 1839.2,627.2 L 1956.1,595.1 L 2071.2,574.9 L 2256.8,554.1"/>
    <path id="osm_hole_1387385182" inkscape:label="hole 4"
      style="fill:none;fill-opacity:0.35;stroke:#F44336;stroke-width:2.0;stroke-opacity:1"
      d="M 2267.1,428.5 L 2126.7,323.3 L 2074.1,256.2 L 1933.7,20.6"/>
    <path id="osm_hole_1387385185" inkscape:label="hole 5"
      style="fill:none;fill-opacity:0.35;stroke:#F44336;stroke-width:2.0;stroke-opacity:1"
      d="M 1831.3,46.1 L 1731.9,-90.6 L 1641.5,-214.9"/>
    <path id="osm_hole_1387385188" inkscape:label="hole 6"
      style="fill:none;fill-opacity:0.35;stroke:#F44336;stroke-width:2.0;stroke-opacity:1"
      d="M 1531.1,-196.5 L 1595.2,-18.1 L 1685.9,146.0 L 1796.5,318.4 L 1865.6,393.6 L 1925.0,448.0 L 1943.1,464.9"/>
    <path id="osm_hole_1387385191" inkscape:label="hole 7"
      style="fill:none;fill-opacity:0.35;stroke:#F44336;stroke-width:2.0;stroke-opacity:1"
      d="M 2156.3,491.6 L 1936.1,518.4 L 1717.4,558.0 L 1497.3,588.6 L 1282.3,614.2"/>
    <path id="osm_hole_1387385194" inkscape:label="hole 8"
      style="fill:none;fill-opacity:0.35;stroke:#F44336;stroke-width:2.0;stroke-opacity:1"
      d="M 1151.5,615.5 L 1311.2,1029.5 L 1365.1,1194.6"/>
    <path id="osm_hole_1387385197" inkscape:label="hole 9"
      style="fill:none;fill-opacity:0.35;stroke:#F44336;stroke-width:2.0;stroke-opacity:1"
      d="M 1291.6,1181.0 L 1193.2,956.3 L 1185.8,939.3"/>
  </g>
</svg>